<svg xmlns:xlink="http://www.w3.org/1999/xlink" id="wave" style="transform:rotate(0deg); transition: 0.3s" viewBox="0 0 1440 490" version="1.1" xmlns="http://www.w3.org/2000/svg"><defs><linearGradient id="sw-gradient-0" x1="0" x2="0" y1="1" y2="0"><stop stop-color="rgba(3.468, 67.995, 134.651, 1)" offset="0%"/><stop stop-color="rgba(245.552, 251.16, 255, 1)" offset="100%"/></linearGradient></defs><path style="transform:translate(0, 0px); opacity:1" fill="url(#sw-gradient-0)" d="M0,147L48,196C96,245,192,343,288,367.5C384,392,480,343,576,302.2C672,261,768,229,864,179.7C960,131,1056,65,1152,89.8C1248,114,1344,229,1440,253.2C1536,278,1632,212,1728,163.3C1824,114,1920,82,2016,89.8C2112,98,2208,147,2304,204.2C2400,261,2496,327,2592,334.8C2688,343,2784,294,2880,302.2C2976,310,3072,376,3168,375.7C3264,376,3360,310,3456,285.8C3552,261,3648,278,3744,236.8C3840,196,3936,98,4032,65.3C4128,33,4224,65,4320,106.2C4416,147,4512,196,4608,220.5C4704,245,4800,245,4896,204.2C4992,163,5088,82,5184,106.2C5280,131,5376,261,5472,269.5C5568,278,5664,163,5760,98C5856,33,5952,16,6048,24.5C6144,33,6240,65,6336,81.7C6432,98,6528,98,6624,81.7C6720,65,6816,33,6864,16.3L6912,0L6912,490L6864,490C6816,490,6720,490,6624,490C6528,490,6432,490,6336,490C6240,490,6144,490,6048,490C5952,490,5856,490,5760,490C5664,490,5568,490,5472,490C5376,490,5280,490,5184,490C5088,490,4992,490,4896,490C4800,490,4704,490,4608,490C4512,490,4416,490,4320,490C4224,490,4128,490,4032,490C3936,490,3840,490,3744,490C3648,490,3552,490,3456,490C3360,490,3264,490,3168,490C3072,490,2976,490,2880,490C2784,490,2688,490,2592,490C2496,490,2400,490,2304,490C2208,490,2112,490,2016,490C1920,490,1824,490,1728,490C1632,490,1536,490,1440,490C1344,490,1248,490,1152,490C1056,490,960,490,864,490C768,490,672,490,576,490C480,490,384,490,288,490C192,490,96,490,48,490L0,490Z"/></svg>